<svg width="24" height="24" viewBox="0 0 24 24" fill="none" xmlns="http://www.w3.org/2000/svg">
<path d="M8.00001 14.5715L6.17717 12.8355C5.53523 12.2241 4.5133 12.2706 3.92954 12.9378C3.40197 13.5407 3.4175 14.4454 3.96545 15.0299L9.9074 21.368C10.2855 21.7713 10.8127 22.0001 11.3655 22.0001C12.4505 22.0001 14.2343 22.0001 16 22.0001C18.4 22.0001 20 20.0001 20 18.0001C20 18.0001 20 11.143 20 9.42871" stroke="black" stroke-width="1.5" stroke-linecap="round" stroke-linejoin="round"/>
<path d="M17 9.99983C17 9.99983 17 9.87471 17 9.4284C17 7.14268 20 7.14268 20 9.4284"  stroke-width="1.5" stroke-linecap="round" stroke-linejoin="round"/>
<path d="M14 9.99986C14 9.99986 14 9.1782 14 8.28558C14 5.99986 17 5.99986 17 8.28558C17 8.50873 17 9.20528 17 9.42843C17 9.87475 17 9.99986 17 9.99986" stroke-width="1.5" stroke-linecap="round" stroke-linejoin="round"/>
<path d="M11 10.0002C11 10.0002 11 8.61596 11 7.50017C11 5.21446 14 5.21446 14 7.50017C14 7.50017 14 8.06273 14 8.28589C14 9.17851 14 10.0002 14 10.0002" stroke-width="1.5" stroke-linecap="round" stroke-linejoin="round"/>
<path d="M8 14.5714V3.5C8 2.67157 8.67157 2 9.5 2C10.3284 2 11 2.67056 11 3.49899C11 4.68968 11 6.34156 11 7.5C11 8.61578 11 10 11 10" stroke-width="1.5" stroke-linecap="round" stroke-linejoin="round"/>
</svg>
